<svg xmlns="http://www.w3.org/2000/svg" xmlns:xlink="http://www.w3.org/1999/xlink" width="500" zoomAndPan="magnify" viewBox="0 0 375 374.999991" height="500" preserveAspectRatio="xMidYMid meet" version="1.0"><defs><g/><clipPath id="abb7235480"><path d="M 33.507812 200.605469 L 350.742188 200.605469 L 350.742188 237.679688 L 33.507812 237.679688 Z M 33.507812 200.605469 " clip-rule="nonzero"/></clipPath></defs><rect x="-37.5" width="450" fill="#ffffff" y="-37.499999" height="449.999989" fill-opacity="1"/><rect x="-37.5" width="450" fill="#f4f4f4" y="-37.499999" height="449.999989" fill-opacity="1"/><g fill="#3b3937" fill-opacity="1"><g transform="translate(176.410085, 273.355588)"><g><path d="M 29.09375 0 L 29.09375 -1.8125 L 31.453125 -1.8125 C 41.390625 -1.8125 46.359375 -6.175781 46.359375 -14.90625 L 46.359375 -127.984375 L 31.453125 -127.984375 C 22.242188 -127.984375 15.789062 -126.253906 12.09375 -122.796875 C 8.394531 -119.347656 6.300781 -113.078125 5.8125 -103.984375 L 5.453125 -97.984375 L 3.640625 -97.984375 L 4.734375 -129.796875 L 106.71875 -129.796875 L 107.8125 -97.984375 L 105.984375 -97.984375 L 105.625 -103.984375 C 105.019531 -113.078125 102.898438 -119.347656 99.265625 -122.796875 C 95.628906 -126.253906 89.203125 -127.984375 79.984375 -127.984375 L 64.71875 -127.984375 L 64.71875 -14.90625 C 64.71875 -6.175781 69.6875 -1.8125 79.625 -1.8125 L 81.984375 -1.8125 L 81.984375 0 Z M 29.09375 0 "/></g></g></g><g fill="#3b3937" fill-opacity="1"><g transform="translate(54.415086, 216.929235)"><g><path d="M 7.09375 0 L 7.09375 -1.8125 L 9.453125 -1.8125 C 19.390625 -1.8125 24.359375 -6.175781 24.359375 -14.90625 L 24.359375 -115.625 C 24.359375 -123.863281 19.390625 -127.984375 9.453125 -127.984375 L 7.09375 -127.984375 L 7.09375 -129.796875 L 60 -129.796875 L 60 -127.984375 L 57.625 -127.984375 C 47.6875 -127.984375 42.71875 -123.617188 42.71875 -114.890625 L 42.71875 -68.71875 L 101.625 -68.71875 L 101.625 -114.890625 C 101.625 -123.617188 96.65625 -127.984375 86.71875 -127.984375 L 84.359375 -127.984375 L 84.359375 -129.796875 L 137.25 -129.796875 L 137.25 -127.984375 L 134.890625 -127.984375 C 124.953125 -127.984375 119.984375 -123.863281 119.984375 -115.625 L 119.984375 -14.90625 C 119.984375 -6.175781 124.953125 -1.8125 134.890625 -1.8125 L 137.25 -1.8125 L 137.25 0 L 84.359375 0 L 84.359375 -1.8125 L 86.71875 -1.8125 C 96.65625 -1.8125 101.625 -6.175781 101.625 -14.90625 L 101.625 -66.90625 L 42.71875 -66.90625 L 42.71875 -14.90625 C 42.71875 -6.175781 47.6875 -1.8125 57.625 -1.8125 L 60 -1.8125 L 60 0 Z M 7.09375 0 "/></g></g></g><g fill="#3b3937" fill-opacity="1"><g transform="translate(90.714256, 248.606489)"><g><path d="M 5.3125 0 L 5.847656 0 L 4.652344 -5.484375 L 2.964844 -1.082031 L 1.277344 -5.484375 L 0.0742188 0 L 0.621094 0 L 1.414062 -3.664062 L 2.964844 0.300781 L 4.511719 -3.664062 Z M 5.3125 0 "/></g></g></g><g fill="#3b3937" fill-opacity="1"><g transform="translate(102.450915, 248.606489)"><g><path d="M 3.625 0 L 3.625 -0.492188 L 1.097656 -0.492188 L 1.097656 -2.324219 L 3.550781 -2.324219 L 3.550781 -2.824219 L 1.097656 -2.824219 L 1.097656 -4.652344 L 3.625 -4.652344 L 3.625 -5.144531 L 0.566406 -5.144531 L 0.566406 0 Z M 3.625 0 "/></g></g></g><g fill="#3b3937" fill-opacity="1"><g transform="translate(112.454683, 248.606489)"><g><path d="M 3.625 0 L 3.625 -0.492188 L 1.097656 -0.492188 L 1.097656 -2.324219 L 3.550781 -2.324219 L 3.550781 -2.824219 L 1.097656 -2.824219 L 1.097656 -4.652344 L 3.625 -4.652344 L 3.625 -5.144531 L 0.566406 -5.144531 L 0.566406 0 Z M 3.625 0 "/></g></g></g><g fill="#3b3937" fill-opacity="1"><g transform="translate(122.45845, 248.606489)"><g><path d="M 0.152344 -4.667969 L 1.398438 -4.667969 L 1.398438 -0.015625 L 1.929688 -0.015625 L 1.929688 -4.667969 L 3.179688 -4.667969 L 3.179688 -5.160156 L 0.152344 -5.160156 Z M 0.152344 -4.667969 "/></g></g></g><g fill="#3b3937" fill-opacity="1"><g transform="translate(131.599567, 248.606489)"><g><path d="M 1.097656 0 L 1.097656 -5.144531 L 0.566406 -5.144531 L 0.566406 0 Z M 1.097656 0 "/></g></g></g><g fill="#3b3937" fill-opacity="1"><g transform="translate(139.0759, 248.606489)"><g><path d="M 1.097656 -3.792969 L 3.988281 0.316406 L 3.988281 -5.144531 L 3.457031 -5.144531 L 3.457031 -1.363281 L 0.566406 -5.472656 L 0.566406 0 L 1.097656 0 Z M 1.097656 -3.792969 "/></g></g></g><g fill="#3b3937" fill-opacity="1"><g transform="translate(149.442894, 248.606489)"><g><path d="M 5.644531 -2.40625 L 2.964844 -2.40625 L 2.964844 -1.945312 L 5.054688 -1.945312 C 4.894531 -1.5 4.632812 -1.136719 4.253906 -0.871094 C 3.875 -0.597656 3.449219 -0.46875 2.988281 -0.46875 C 2.398438 -0.46875 1.898438 -0.671875 1.484375 -1.089844 C 1.074219 -1.503906 0.871094 -2.011719 0.871094 -2.59375 C 0.871094 -3.179688 1.074219 -3.675781 1.492188 -4.09375 C 1.898438 -4.503906 2.398438 -4.714844 2.988281 -4.714844 C 3.429688 -4.714844 3.828125 -4.585938 4.183594 -4.335938 C 4.546875 -4.085938 4.804688 -3.761719 4.972656 -3.34375 L 5.53125 -3.34375 C 5.359375 -3.914062 5.03125 -4.367188 4.5625 -4.714844 C 4.09375 -5.0625 3.550781 -5.242188 2.9375 -5.242188 C 2.601562 -5.242188 2.277344 -5.167969 1.960938 -5.03125 C 1.632812 -4.894531 1.355469 -4.707031 1.113281 -4.464844 C 0.871094 -4.222656 0.679688 -3.941406 0.542969 -3.625 C 0.410156 -3.300781 0.339844 -2.953125 0.339844 -2.589844 C 0.339844 -2.226562 0.410156 -1.875 0.542969 -1.558594 C 0.679688 -1.234375 0.871094 -0.953125 1.113281 -0.710938 C 1.355469 -0.46875 1.632812 -0.28125 1.960938 -0.144531 C 2.277344 -0.0078125 2.625 0.0585938 2.988281 0.0585938 C 3.609375 0.0585938 4.167969 -0.136719 4.667969 -0.539062 C 5.167969 -0.945312 5.480469 -1.460938 5.59375 -2.089844 Z M 5.644531 -2.40625 "/></g></g></g><g fill="#3b3937" fill-opacity="1"><g transform="translate(161.240088, 248.606489)"><g><path d="M 1.398438 -1.890625 L 2.339844 -4.261719 L 3.269531 -1.890625 Z M 4.59375 0 L 2.339844 -5.5 L 0.0742188 0 L 0.652344 0 L 1.203125 -1.398438 L 3.464844 -1.398438 L 4.019531 0 Z M 4.59375 0 "/></g></g></g><g fill="#3b3937" fill-opacity="1"><g transform="translate(171.720595, 248.606489)"><g><path d="M 1.097656 -2.550781 L 1.097656 -4.636719 L 2.292969 -4.636719 C 2.601562 -4.636719 2.851562 -4.539062 3.042969 -4.351562 C 3.222656 -4.15625 3.320312 -3.914062 3.320312 -3.609375 C 3.320312 -3.300781 3.222656 -3.050781 3.027344 -2.84375 C 2.832031 -2.648438 2.589844 -2.550781 2.292969 -2.550781 Z M 3.851562 -3.59375 C 3.851562 -4.046875 3.683594 -4.417969 3.367188 -4.714844 C 3.050781 -5 2.671875 -5.144531 2.21875 -5.144531 L 0.566406 -5.144531 L 0.566406 0 L 1.097656 0 L 1.097656 -2.035156 L 2.21875 -2.035156 C 2.671875 -2.035156 3.058594 -2.179688 3.367188 -2.46875 C 3.683594 -2.769531 3.851562 -3.140625 3.851562 -3.59375 Z M 3.851562 -3.59375 "/></g></g></g><g fill="#3b3937" fill-opacity="1"><g transform="translate(181.535184, 248.606489)"><g><path d="M 1.097656 -2.550781 L 1.097656 -4.636719 L 2.292969 -4.636719 C 2.601562 -4.636719 2.851562 -4.539062 3.042969 -4.351562 C 3.222656 -4.15625 3.320312 -3.914062 3.320312 -3.609375 C 3.320312 -3.300781 3.222656 -3.050781 3.027344 -2.84375 C 2.832031 -2.648438 2.589844 -2.550781 2.292969 -2.550781 Z M 3.851562 -3.59375 C 3.851562 -4.046875 3.683594 -4.417969 3.367188 -4.714844 C 3.050781 -5 2.671875 -5.144531 2.21875 -5.144531 L 0.566406 -5.144531 L 0.566406 0 L 1.097656 0 L 1.097656 -2.035156 L 2.21875 -2.035156 C 2.671875 -2.035156 3.058594 -2.179688 3.367188 -2.46875 C 3.683594 -2.769531 3.851562 -3.140625 3.851562 -3.59375 Z M 3.851562 -3.59375 "/></g></g></g><g clip-path="url(#abb7235480)"><path fill="#f4f4f4" d="M 33.507812 200.605469 L 350.800781 200.605469 L 350.800781 237.679688 L 33.507812 237.679688 Z M 33.507812 200.605469 " fill-opacity="1" fill-rule="nonzero"/></g><g fill="#967f71" fill-opacity="1"><g transform="translate(132.636976, 227.124491)"><g><path d="M 20.441406 -7.320312 C 19.484375 -7.179688 18.558594 -7.070312 17.632812 -6.945312 C 17.507812 -6.929688 17.367188 -6.992188 17.273438 -7.085938 C 17.195312 -7.195312 17.164062 -7.335938 17.210938 -7.460938 L 20.550781 -18.449219 C 20.613281 -18.667969 20.488281 -18.886719 20.269531 -18.964844 C 20.046875 -19.03125 19.828125 -18.902344 19.75 -18.683594 L 16.207031 -7.023438 C 16.160156 -6.867188 16.035156 -6.757812 15.878906 -6.742188 C 15.503906 -6.707031 15.140625 -6.660156 14.78125 -6.628906 C 14.609375 -6.613281 14.453125 -6.707031 14.375 -6.867188 C 13.855469 -7.980469 13.011719 -8.902344 11.929688 -9.5 C 11.757812 -9.578125 11.582031 -9.671875 11.394531 -9.75 C 11.222656 -9.828125 11.113281 -10.03125 11.175781 -10.21875 L 13.277344 -17.777344 C 13.324219 -17.933594 13.292969 -18.074219 13.183594 -18.183594 C 13.074219 -18.292969 12.917969 -18.339844 12.773438 -18.292969 C 12.632812 -18.261719 12.523438 -18.152344 12.492188 -17.996094 L 10.390625 -10.457031 C 10.328125 -10.25 10.125 -10.140625 9.921875 -10.171875 C 7.070312 -10.691406 3.777344 -9.5 1.566406 -7.742188 C 0.894531 -7.210938 0.644531 -6.707031 0.847656 -6.238281 C 1.269531 -5.234375 4.5625 -5.09375 8.402344 -5.265625 C 8.527344 -5.28125 8.652344 -5.21875 8.730469 -5.125 C 8.808594 -5.03125 8.839844 -4.890625 8.808594 -4.765625 L 7.648438 -0.628906 C 7.601562 -0.40625 7.726562 -0.1875 7.945312 -0.140625 C 8.167969 -0.078125 8.386719 -0.203125 8.449219 -0.40625 L 9.75 -5.078125 C 9.796875 -5.25 9.9375 -5.359375 10.109375 -5.375 C 11.285156 -5.453125 12.476562 -5.566406 13.621094 -5.675781 C 13.808594 -5.691406 13.996094 -5.582031 14.042969 -5.390625 C 14.421875 -3.871094 14.515625 -2.289062 14.3125 -0.738281 C 14.28125 -0.515625 14.421875 -0.328125 14.625 -0.28125 C 14.84375 -0.234375 15.046875 -0.359375 15.109375 -0.5625 L 16.695312 -5.769531 C 16.742188 -5.925781 16.867188 -6.035156 17.023438 -6.050781 C 18.464844 -6.222656 19.6875 -6.378906 20.550781 -6.503906 C 20.691406 -6.519531 20.832031 -6.613281 20.878906 -6.757812 C 20.941406 -6.898438 20.910156 -7.054688 20.832031 -7.164062 C 20.738281 -7.289062 20.582031 -7.335938 20.441406 -7.320312 Z M 1.597656 -6.566406 C 1.597656 -6.566406 1.597656 -6.742188 2.070312 -7.117188 C 3.933594 -8.574219 6.207031 -9.40625 8.574219 -9.46875 C 8.917969 -9.484375 9.28125 -9.453125 9.640625 -9.390625 C 9.75 -9.375 9.84375 -9.3125 9.90625 -9.21875 C 9.96875 -9.121094 9.984375 -8.996094 9.953125 -8.886719 L 9.265625 -6.441406 C 9.21875 -6.269531 9.074219 -6.160156 8.902344 -6.144531 C 4.6875 -5.910156 1.816406 -6.019531 1.597656 -6.566406 Z M 10.628906 -6.253906 C 10.488281 -6.238281 10.359375 -6.300781 10.28125 -6.394531 C 10.203125 -6.503906 10.171875 -6.644531 10.21875 -6.757812 L 10.863281 -9.074219 C 11.082031 -8.996094 11.316406 -8.886719 11.535156 -8.777344 C 12.257812 -8.371094 12.886719 -7.789062 13.324219 -7.070312 C 13.386719 -6.960938 13.402344 -6.804688 13.339844 -6.675781 C 13.277344 -6.550781 13.152344 -6.472656 13.011719 -6.457031 C 12.195312 -6.378906 11.394531 -6.316406 10.628906 -6.253906 Z M 15.1875 -3.652344 C 15.140625 -4.230469 15.046875 -4.796875 14.90625 -5.359375 C 14.890625 -5.46875 14.90625 -5.582031 14.96875 -5.675781 C 15.03125 -5.769531 15.140625 -5.832031 15.25 -5.847656 L 15.265625 -5.847656 C 15.410156 -5.863281 15.535156 -5.800781 15.613281 -5.707031 C 15.707031 -5.597656 15.738281 -5.453125 15.691406 -5.328125 Z M 15.1875 -3.652344 "/></g></g></g><g fill="#967f71" fill-opacity="1"><g transform="translate(153.459797, 227.124491)"><g><path d="M 11.425781 -4.453125 C 11.347656 -4.53125 11.253906 -4.5625 11.144531 -4.5625 C 11.035156 -4.5625 10.925781 -4.53125 10.847656 -4.453125 C 8.964844 -2.570312 6.300781 -1.707031 3.683594 -2.148438 C 3.480469 -2.195312 3.339844 -2.382812 3.371094 -2.585938 C 3.496094 -3.339844 3.433594 -4.105469 2.992188 -4.359375 C 2.710938 -4.515625 2.289062 -4.53125 1.785156 -3.683594 C 1.597656 -3.402344 1.535156 -3.054688 1.597656 -2.726562 C 1.675781 -2.398438 1.882812 -2.101562 2.164062 -1.929688 C 2.335938 -1.785156 2.132812 -1.550781 2.023438 -1.441406 C 1.722656 -1.082031 1.207031 -1.019531 0.847656 -1.300781 C 0.390625 -1.503906 0.1875 -2.007812 0.359375 -2.460938 C 0.5625 -3.292969 1.378906 -4.011719 1.675781 -4.011719 C 1.898438 -4.011719 2.085938 -4.199219 2.085938 -4.421875 C 2.101562 -4.640625 1.914062 -4.828125 1.691406 -4.84375 L 1.675781 -4.84375 C 0.894531 -4.84375 -0.15625 -3.777344 -0.4375 -2.664062 C -0.707031 -1.851562 -0.328125 -0.957031 0.453125 -0.578125 C 0.753906 -0.40625 1.082031 -0.328125 1.425781 -0.3125 C 2.101562 -0.34375 2.695312 -0.753906 2.976562 -1.378906 C 3.007812 -1.425781 3.089844 -1.457031 3.152344 -1.441406 C 5.140625 -0.847656 8.777344 -1.222656 11.425781 -3.855469 C 11.503906 -3.933594 11.550781 -4.042969 11.550781 -4.152344 C 11.550781 -4.261719 11.503906 -4.375 11.425781 -4.453125 Z M 2.554688 -2.664062 C 2.382812 -2.820312 2.351562 -3.074219 2.492188 -3.261719 C 2.539062 -3.339844 2.570312 -3.386719 2.601562 -3.433594 C 2.617188 -3.183594 2.601562 -2.914062 2.554688 -2.664062 Z M 2.554688 -2.664062 "/></g></g></g><g fill="#967f71" fill-opacity="1"><g transform="translate(164.28641, 227.124491)"><g><path d="M 13.699219 -3.902344 C 13.605469 -3.964844 13.511719 -4.011719 13.402344 -4.011719 C 13.292969 -3.996094 13.183594 -3.949219 13.121094 -3.871094 C 13.074219 -3.839844 9.625 -0.15625 6.628906 -1.363281 C 5.988281 -1.707031 5.46875 -2.226562 5.109375 -2.867188 C 4.984375 -3.074219 4.828125 -3.277344 4.640625 -3.464844 C 4.4375 -3.714844 4.121094 -3.855469 3.792969 -3.871094 C 2.992188 -3.933594 2.023438 -3.402344 0.863281 -2.304688 C 0.832031 -2.273438 0.785156 -2.257812 0.738281 -2.289062 C 0.691406 -2.304688 0.660156 -2.367188 0.675781 -2.414062 L 1.019531 -3.949219 C 1.082031 -4.167969 0.941406 -4.40625 0.722656 -4.453125 C 0.5 -4.5 0.28125 -4.359375 0.21875 -4.136719 L -0.5625 -0.707031 C -0.609375 -0.515625 -0.515625 -0.328125 -0.34375 -0.25 C -0.171875 -0.15625 0.03125 -0.203125 0.15625 -0.34375 C 2.257812 -2.804688 3.324219 -3.039062 3.699219 -3.054688 C 4.074219 -3.074219 4.3125 -2.585938 4.4375 -2.398438 C 4.875 -1.628906 5.535156 -1.003906 6.316406 -0.609375 C 9.828125 0.816406 13.558594 -3.152344 13.714844 -3.324219 C 13.871094 -3.480469 13.855469 -3.746094 13.699219 -3.902344 Z M 13.699219 -3.902344 "/></g></g></g><g fill="#967f71" fill-opacity="1"><g transform="translate(177.337881, 227.124491)"><g><path d="M 10.910156 -4.121094 C 10.738281 -4.277344 10.472656 -4.261719 10.328125 -4.089844 C 9.089844 -2.804688 7.085938 -2.679688 5.707031 -3.792969 C 5.375 -4.027344 4.921875 -4.011719 4.625 -3.730469 C 4.453125 -3.574219 4.261719 -3.402344 4.074219 -3.199219 C 3.480469 -2.523438 3.371094 -3.089844 3.371094 -3.464844 C 3.371094 -3.792969 3.308594 -4.136719 3.199219 -4.453125 C 3.136719 -4.609375 2.976562 -4.71875 2.804688 -4.71875 C 2.632812 -4.703125 2.492188 -4.609375 2.429688 -4.4375 C 1.992188 -3.214844 1.050781 -1.425781 0.390625 -1.300781 C 0.34375 -1.285156 0.21875 -1.269531 0.03125 -1.472656 C -0.0625 -1.882812 0 -2.320312 0.203125 -2.695312 C 0.675781 -3.964844 1.832031 -4.859375 3.183594 -4.984375 C 3.417969 -5 3.589844 -5.203125 3.574219 -5.421875 C 3.558594 -5.660156 3.355469 -5.832031 3.136719 -5.816406 C 1.457031 -5.660156 0.015625 -4.5625 -0.578125 -2.976562 C -0.847656 -2.289062 -1.003906 -1.378906 -0.578125 -0.925781 C -0.296875 -0.578125 0.125 -0.421875 0.546875 -0.5 C 1.332031 -0.660156 2.039062 -1.691406 2.539062 -2.632812 C 2.507812 -2.257812 2.460938 -1.832031 2.398438 -1.394531 C 2.382812 -1.300781 2.351562 -1.222656 2.304688 -1.160156 C 0.46875 1.160156 -1.191406 3.964844 -1.222656 5.738281 C -1.269531 6.207031 -1.097656 6.675781 -0.785156 7.023438 C -0.628906 7.179688 -0.4375 7.257812 -0.234375 7.257812 C -0.0625 7.257812 0.109375 7.210938 0.25 7.117188 C 1.285156 6.425781 2.601562 2.398438 3.121094 -0.800781 C 3.136719 -0.863281 3.167969 -0.925781 3.214844 -0.988281 C 3.761719 -1.660156 4.34375 -2.304688 4.953125 -2.914062 C 5.09375 -3.054688 5.3125 -3.074219 5.46875 -2.960938 C 7.195312 -1.800781 9.484375 -2.054688 10.925781 -3.542969 C 11.066406 -3.714844 11.066406 -3.964844 10.910156 -4.121094 Z M 0.46875 5.453125 C 0.109375 6.175781 -0.015625 6.488281 -0.203125 6.425781 C -0.390625 6.378906 -0.40625 6.066406 -0.390625 5.753906 C -0.359375 4.546875 1.738281 0.453125 2.039062 0.578125 C 2.335938 0.707031 1.066406 4.214844 0.46875 5.453125 Z M 0.46875 5.453125 "/></g></g></g><g fill="#967f71" fill-opacity="1"><g transform="translate(187.663118, 227.124491)"><g><path d="M 21.097656 -14.828125 C 21.050781 -14.921875 20.957031 -14.984375 20.847656 -15.015625 C 20.738281 -15.03125 20.628906 -15.015625 20.535156 -14.96875 C 18.230469 -13.574219 15.503906 -14.59375 12.351562 -15.769531 C 8.714844 -17.148438 4.59375 -18.683594 -0.0625 -16.976562 C -3.183594 -15.832031 -3.792969 -13.480469 -3.308594 -11.664062 C -2.867188 -9.96875 -1.550781 -8.777344 -0.203125 -8.777344 C -0.09375 -8.777344 0.03125 -8.792969 0.140625 -8.808594 C 0.296875 -8.824219 0.421875 -8.917969 0.46875 -9.058594 C 0.53125 -9.203125 0.5 -9.359375 0.40625 -9.484375 C 0.3125 -9.59375 0.15625 -9.640625 0.015625 -9.609375 C -1.003906 -9.453125 -2.148438 -10.457031 -2.507812 -11.867188 C -2.695312 -12.570312 -3.054688 -15 0.21875 -16.207031 C 2.460938 -17.007812 4.875 -17.132812 7.164062 -16.570312 C 7.335938 -16.539062 7.476562 -16.425781 7.570312 -16.285156 C 7.648438 -16.144531 7.679688 -15.972656 7.632812 -15.816406 C 6.960938 -13.261719 4.890625 -5.675781 3.039062 -1.019531 C 2.960938 -0.800781 3.054688 -0.5625 3.277344 -0.484375 C 3.480469 -0.40625 3.714844 -0.5 3.808594 -0.722656 C 5.675781 -5.40625 7.742188 -13.011719 8.433594 -15.597656 C 8.464844 -15.753906 8.574219 -15.894531 8.714844 -15.972656 C 8.871094 -16.050781 9.042969 -16.066406 9.203125 -16.019531 C 10.1875 -15.707031 11.128906 -15.363281 12.054688 -15 C 15.265625 -13.808594 18.308594 -12.664062 20.957031 -14.265625 C 21.160156 -14.375 21.222656 -14.625 21.097656 -14.828125 Z M 21.097656 -14.828125 "/></g></g></g><g fill="#967f71" fill-opacity="1"><g transform="translate(195.246441, 227.124491)"><g><path d="M 12.367188 -3.746094 C 12.210938 -3.917969 11.960938 -3.933594 11.789062 -3.777344 C 11.757812 -3.761719 8.527344 -0.941406 6.160156 -1.316406 C 5.453125 -1.425781 4.84375 -1.851562 4.5 -2.476562 C 4.199219 -3.023438 3.652344 -3.371094 3.039062 -3.433594 C 2.273438 -3.480469 1.425781 -3.023438 0.53125 -2.085938 C 0.484375 -2.039062 0.40625 -2.023438 0.34375 -2.054688 C 0.28125 -2.085938 0.25 -2.148438 0.265625 -2.226562 C 0.3125 -2.523438 0.453125 -3.277344 0.515625 -3.558594 C 0.515625 -3.511719 0.628906 -3.730469 0.628906 -3.746094 C 1.960938 -5.566406 5.941406 -11.332031 4.390625 -13.183594 C 4.183594 -13.464844 3.808594 -13.589844 3.464844 -13.496094 C 3.152344 -13.402344 2.195312 -13.105469 0.722656 -7.867188 C 0.359375 -6.597656 0.03125 -5.234375 -0.234375 -3.949219 L -0.34375 -3.808594 C -0.453125 -3.667969 -0.453125 -3.480469 -0.359375 -3.324219 C -0.59375 -2.164062 -0.753906 -1.097656 -0.832031 -0.28125 C -0.847656 -0.09375 -0.738281 0.078125 -0.5625 0.140625 C -0.390625 0.203125 -0.1875 0.140625 -0.078125 -0.015625 C 1.519531 -2.335938 2.539062 -2.632812 2.992188 -2.617188 C 3.324219 -2.585938 3.621094 -2.382812 3.777344 -2.085938 C 4.246094 -1.238281 5.078125 -0.644531 6.050781 -0.5 C 8.777344 -0.078125 12.179688 -3.039062 12.335938 -3.167969 C 12.492188 -3.324219 12.507812 -3.574219 12.367188 -3.746094 Z M 3.699219 -12.710938 C 3.730469 -12.710938 3.746094 -12.664062 3.761719 -12.648438 C 4.515625 -11.804688 1.394531 -5.5 1.003906 -5.753906 C 0.628906 -5.988281 3.039062 -12.710938 3.699219 -12.710938 Z M 3.699219 -12.710938 "/></g></g></g><g fill="#967f71" fill-opacity="1"><g transform="translate(207.091476, 227.124491)"><g><path d="M 10.15625 -4.230469 C 9.984375 -4.390625 9.734375 -4.390625 9.578125 -4.214844 C 9.515625 -4.167969 4.4375 1.003906 1.066406 -1.457031 C 0.03125 -2.210938 1.035156 -4.167969 1.050781 -4.183594 C 1.144531 -4.390625 1.066406 -4.625 0.863281 -4.734375 C 0.660156 -4.828125 0.421875 -4.765625 0.3125 -4.5625 C 0.25 -4.46875 -1.019531 -1.976562 0.578125 -0.800781 C 1.316406 -0.25 2.226562 0.046875 3.152344 0.03125 C 6.535156 0.03125 9.96875 -3.464844 10.15625 -3.652344 C 10.234375 -3.730469 10.28125 -3.824219 10.28125 -3.933594 C 10.265625 -4.042969 10.234375 -4.152344 10.15625 -4.230469 Z M 0.140625 -5.46875 C 0.203125 -5.46875 0.265625 -5.484375 0.328125 -5.519531 C 0.707031 -5.707031 1.035156 -5.957031 1.332031 -6.253906 C 1.488281 -6.425781 1.472656 -6.675781 1.316406 -6.835938 C 1.144531 -6.992188 0.894531 -6.992188 0.738281 -6.820312 C 0.5 -6.582031 0.234375 -6.394531 -0.0625 -6.238281 C -0.21875 -6.160156 -0.3125 -5.957031 -0.265625 -5.785156 C -0.21875 -5.597656 -0.046875 -5.46875 0.140625 -5.46875 Z M 0.140625 -5.46875 "/></g></g></g><g fill="#967f71" fill-opacity="1"><g transform="translate(216.711654, 227.124491)"><g><path d="M 13.699219 -3.902344 C 13.605469 -3.964844 13.511719 -4.011719 13.402344 -4.011719 C 13.292969 -3.996094 13.183594 -3.949219 13.121094 -3.871094 C 13.074219 -3.839844 9.625 -0.15625 6.628906 -1.363281 C 5.988281 -1.707031 5.46875 -2.226562 5.109375 -2.867188 C 4.984375 -3.074219 4.828125 -3.277344 4.640625 -3.464844 C 4.4375 -3.714844 4.121094 -3.855469 3.792969 -3.871094 C 2.992188 -3.933594 2.023438 -3.402344 0.863281 -2.304688 C 0.832031 -2.273438 0.785156 -2.257812 0.738281 -2.289062 C 0.691406 -2.304688 0.660156 -2.367188 0.675781 -2.414062 L 1.019531 -3.949219 C 1.082031 -4.167969 0.941406 -4.40625 0.722656 -4.453125 C 0.5 -4.5 0.28125 -4.359375 0.21875 -4.136719 L -0.5625 -0.707031 C -0.609375 -0.515625 -0.515625 -0.328125 -0.34375 -0.25 C -0.171875 -0.15625 0.03125 -0.203125 0.15625 -0.34375 C 2.257812 -2.804688 3.324219 -3.039062 3.699219 -3.054688 C 4.074219 -3.074219 4.3125 -2.585938 4.4375 -2.398438 C 4.875 -1.628906 5.535156 -1.003906 6.316406 -0.609375 C 9.828125 0.816406 13.558594 -3.152344 13.714844 -3.324219 C 13.871094 -3.480469 13.855469 -3.746094 13.699219 -3.902344 Z M 13.699219 -3.902344 "/></g></g></g><g fill="#967f71" fill-opacity="1"><g transform="translate(229.763124, 227.124491)"><g><path d="M 12.367188 -3.746094 C 12.210938 -3.917969 11.960938 -3.933594 11.789062 -3.777344 C 11.757812 -3.761719 8.527344 -0.941406 6.160156 -1.316406 C 5.453125 -1.425781 4.84375 -1.851562 4.5 -2.476562 C 4.199219 -3.023438 3.652344 -3.371094 3.039062 -3.433594 C 2.273438 -3.480469 1.425781 -3.023438 0.53125 -2.085938 C 0.484375 -2.039062 0.40625 -2.023438 0.34375 -2.054688 C 0.28125 -2.085938 0.25 -2.148438 0.265625 -2.226562 C 0.3125 -2.523438 0.453125 -3.277344 0.515625 -3.558594 C 0.515625 -3.511719 0.628906 -3.730469 0.628906 -3.746094 C 1.960938 -5.566406 5.941406 -11.332031 4.390625 -13.183594 C 4.183594 -13.464844 3.808594 -13.589844 3.464844 -13.496094 C 3.152344 -13.402344 2.195312 -13.105469 0.722656 -7.867188 C 0.359375 -6.597656 0.03125 -5.234375 -0.234375 -3.949219 L -0.34375 -3.808594 C -0.453125 -3.667969 -0.453125 -3.480469 -0.359375 -3.324219 C -0.59375 -2.164062 -0.753906 -1.097656 -0.832031 -0.28125 C -0.847656 -0.09375 -0.738281 0.078125 -0.5625 0.140625 C -0.390625 0.203125 -0.1875 0.140625 -0.078125 -0.015625 C 1.519531 -2.335938 2.539062 -2.632812 2.992188 -2.617188 C 3.324219 -2.585938 3.621094 -2.382812 3.777344 -2.085938 C 4.246094 -1.238281 5.078125 -0.644531 6.050781 -0.5 C 8.777344 -0.078125 12.179688 -3.039062 12.335938 -3.167969 C 12.492188 -3.324219 12.507812 -3.574219 12.367188 -3.746094 Z M 3.699219 -12.710938 C 3.730469 -12.710938 3.746094 -12.664062 3.761719 -12.648438 C 4.515625 -11.804688 1.394531 -5.5 1.003906 -5.753906 C 0.628906 -5.988281 3.039062 -12.710938 3.699219 -12.710938 Z M 3.699219 -12.710938 "/></g></g></g></svg>